<?xml version="1.0" encoding="UTF-8" standalone="no"?>
<!DOCTYPE svg PUBLIC "-//W3C//DTD SVG 1.1//EN" "http://www.w3.org/Graphics/SVG/1.1/DTD/svg11.dtd">
<!-- Created with Vectornator (http://vectornator.io/) -->
<svg height="100%" stroke-miterlimit="10" style="fill-rule:nonzero;clip-rule:evenodd;stroke-linecap:round;stroke-linejoin:round;" version="1.1" viewBox="0 0 325 311.5" width="100%" xml:space="preserve" xmlns="http://www.w3.org/2000/svg" xmlns:xlink="http://www.w3.org/1999/xlink">
<defs/>
<g id="Untitled">
<path d="M47.5 33.5C118.503 33.1667 189.503 33.5 260.5 34.5C282.533 101.428 304.033 168.428 325 235.5C289.922 260.956 254.755 286.289 219.5 311.5C202.042 260.791 185.375 209.791 169.5 158.5C115.5 158.5 61.5 158.5 7.5 158.5C20.8331 116.834 34.1664 75.1674 47.5 33.5ZM78.5 75.5C128.833 75.5 179.167 75.5 229.5 75.5C244.522 122.915 259.855 170.248 275.5 217.5C264.627 227.055 252.96 235.388 240.5 242.5C227.157 200.139 213.824 157.806 200.5 115.5C155.833 115.5 111.167 115.5 66.5 115.5C70.2977 102.107 74.2977 88.7735 78.5 75.5Z" fill="#fefefe" fill-rule="evenodd" opacity="1" stroke="none"/>
</g>
</svg>
