<?xml version="1.0" encoding="UTF-8" standalone="no"?>
<!DOCTYPE svg PUBLIC "-//W3C//DTD SVG 1.1//EN" "http://www.w3.org/Graphics/SVG/1.1/DTD/svg11.dtd">
<!-- Created with Vectornator (http://vectornator.io/) -->
<svg height="100%" stroke-miterlimit="10" style="fill-rule:nonzero;clip-rule:evenodd;stroke-linecap:round;stroke-linejoin:round;" version="1.1" viewBox="0 0 1024 1024" width="100%" xml:space="preserve" xmlns="http://www.w3.org/2000/svg" xmlns:xlink="http://www.w3.org/1999/xlink">
<defs/>
<clipPath id="ArtboardFrame">
<rect height="1024" width="1024" x="0" y="0"/>
</clipPath>
<g clip-path="url(#ArtboardFrame)" id="Layer-1">
<path d="M263.094 263.094L336 512L263.094 760.906L512 688L760.906 760.906L688 512L760.906 263.094L512 336L263.094 263.094ZM512 384C582.692 384 640 441.308 640 512C640 582.692 582.692 640 512 640C441.308 640 384 582.692 384 512C384 441.308 441.308 384 512 384Z" fill="#81812c" fill-rule="nonzero" opacity="1" stroke="#81812c" stroke-linecap="round" stroke-linejoin="bevel" stroke-opacity="0" stroke-width="3"/>
<path d="M512 384C441.308 384 384 441.308 384 512C384 582.692 441.308 640 512 640C582.692 640 640 582.692 640 512C640 441.308 582.692 384 512 384ZM512 448C547.346 448 576 476.654 576 512C576 547.346 547.346 576 512 576C476.654 576 448 547.346 448 512C448 476.654 476.654 448 512 448Z" fill="#81812c" fill-rule="nonzero" opacity="1" stroke="#81812c" stroke-linecap="round" stroke-linejoin="bevel" stroke-opacity="0" stroke-width="3"/>
<path d="M425 421.913L512.951 0L599 425L425 421.913Z" fill="#81812c" fill-rule="nonzero" opacity="1" stroke="#81812c" stroke-linecap="round" stroke-linejoin="bevel" stroke-width="3"/>
<path d="M602.087 425L1024 512.951L599 599L602.087 425Z" fill="#81812c" fill-rule="nonzero" opacity="1" stroke="#81812c" stroke-linecap="round" stroke-linejoin="bevel" stroke-width="3"/>
<path d="M599 602.087L511.049 1024L425 599L599 602.087Z" fill="#81812c" fill-rule="nonzero" opacity="1" stroke="#81812c" stroke-linecap="round" stroke-linejoin="bevel" stroke-width="3"/>
<path d="M421.913 599L0 511.049L425 425L421.913 599Z" fill="#81812c" fill-rule="nonzero" opacity="1" stroke="#81812c" stroke-linecap="round" stroke-linejoin="bevel" stroke-width="3"/>
<path d="M544 384L512 0L576 320L544 384Z" fill="#4f4f16" fill-rule="nonzero" opacity="1" stroke="#81812c" stroke-linecap="butt" stroke-linejoin="miter" stroke-opacity="0" stroke-width="5"/>
<path d="M640 544L1024 512L704 576L640 544Z" fill="#4f4f16" fill-rule="nonzero" opacity="1" stroke="#81812c" stroke-linecap="butt" stroke-linejoin="miter" stroke-opacity="0" stroke-width="5"/>
<path d="M512 1024L448 704L480 640L512 1024Z" fill="#4f4f16" fill-rule="nonzero" opacity="1" stroke="#81812c" stroke-linecap="butt" stroke-linejoin="miter" stroke-opacity="0" stroke-width="5"/>
<path d="M320 448L0 512L384 480L320 448Z" fill="#4f4f16" fill-rule="nonzero" opacity="1" stroke="#81812c" stroke-linecap="butt" stroke-linejoin="miter" stroke-opacity="0" stroke-width="5"/>
<path d="M448 512C448 476.654 476.654 448 512 448C547.346 448 576 476.654 576 512C576 547.346 547.346 576 512 576C476.654 576 448 547.346 448 512Z" fill="#81812c" fill-opacity="0" fill-rule="nonzero" opacity="1" stroke="#4f4f16" stroke-linecap="butt" stroke-linejoin="miter" stroke-width="8"/>
<path d="M760.906 760.906L560 624L576 704L760.906 760.906Z" fill="#4f4f16" fill-rule="nonzero" opacity="1" stroke="#81812c" stroke-linecap="butt" stroke-linejoin="miter" stroke-opacity="0" stroke-width="5"/>
<path d="M320 576L400 560L263.094 760.906L320 576Z" fill="#4f4f16" fill-rule="nonzero" opacity="1" stroke="#81812c" stroke-linecap="butt" stroke-linejoin="miter" stroke-opacity="0" stroke-width="5"/>
<path d="M464 400L263.094 263.094L448 320L464 400Z" fill="#4f4f16" fill-rule="nonzero" opacity="1" stroke="#81812c" stroke-linecap="butt" stroke-linejoin="miter" stroke-opacity="0" stroke-width="5"/>
<path d="M760.906 263.094L704 448L624 464L760.906 263.094Z" fill="#4f4f16" fill-rule="nonzero" opacity="1" stroke="#81812c" stroke-linecap="butt" stroke-linejoin="miter" stroke-opacity="0" stroke-width="5"/>
<path d="M512 0L480 416L464 336L512 0Z" fill="#d0d07a" fill-rule="nonzero" opacity="1" stroke="#81812c" stroke-linecap="round" stroke-linejoin="bevel" stroke-opacity="0" stroke-width="5"/>
<path d="M560 400L592 336L760.906 263.094L560 400Z" fill="#d0d07a" fill-rule="nonzero" opacity="1" stroke="#81812c" stroke-linecap="round" stroke-linejoin="bevel" stroke-opacity="0" stroke-width="5"/>
<path d="M608 480L688 464L1024 512L608 480Z" fill="#d0d07a" fill-rule="nonzero" opacity="1" stroke="#81812c" stroke-linecap="round" stroke-linejoin="bevel" stroke-opacity="0" stroke-width="5"/>
<path d="M760.906 760.906L624 560L688 592L760.906 760.906Z" fill="#d0d07a" fill-rule="nonzero" opacity="1" stroke="#81812c" stroke-linecap="round" stroke-linejoin="bevel" stroke-opacity="0" stroke-width="5"/>
<path d="M512 1024L544 608L560 688L512 1024Z" fill="#d0d07a" fill-rule="nonzero" opacity="1" stroke="#81812c" stroke-linecap="round" stroke-linejoin="bevel" stroke-opacity="0" stroke-width="5"/>
<path d="M464 624L432 688L263.094 760.906L464 624Z" fill="#d0d07a" fill-rule="nonzero" opacity="1" stroke="#81812c" stroke-linecap="round" stroke-linejoin="bevel" stroke-opacity="0" stroke-width="5"/>
<path d="M416 544L336 560L0 511.049L416 544Z" fill="#d0d07a" fill-rule="nonzero" opacity="1" stroke="#81812c" stroke-linecap="round" stroke-linejoin="bevel" stroke-opacity="0" stroke-width="3"/>
<path d="M263.094 263.094L400 464L336 432L263.094 263.094Z" fill="#d0d07a" fill-rule="nonzero" opacity="1" stroke="#81812c" stroke-linecap="round" stroke-linejoin="bevel" stroke-opacity="0" stroke-width="3"/>
<path d="M416 512C416 458.981 458.981 416 512 416C565.019 416 608 458.981 608 512C608 565.019 565.019 608 512 608C458.981 608 416 565.019 416 512Z" fill="#81812c" fill-opacity="0" fill-rule="nonzero" opacity="1" stroke="#d0d07a" stroke-linecap="round" stroke-linejoin="bevel" stroke-width="7"/>
<path d="M432 510.339C432 467.073 467.817 432 512 432C556.183 432 592 467.073 592 510.339C592 553.604 556.183 588.677 512 588.677C467.817 588.677 432 553.604 432 510.339Z" fill="#81812c" fill-opacity="0" fill-rule="nonzero" opacity="1" stroke="#4f4f16" stroke-linecap="round" stroke-linejoin="bevel" stroke-width="7"/>
</g>
</svg>
